<?xml version="1.0" encoding="utf-8"?>
<!-- Generator: Adobe Illustrator 19.0.0, SVG Export Plug-In . SVG Version: 6.00 Build 0)  -->
<svg version="1.1" id="Layer_1" xmlns="http://www.w3.org/2000/svg" xmlns:xlink="http://www.w3.org/1999/xlink" x="0px" y="0px"
	 viewBox="0 0 50 50" style="enable-background:new 0 0 50 50;" xml:space="preserve">
<style type="text/css">
	.st0{fill:#FFFFFF;}
</style>
<g id="XMLID_69_">
	<path id="XMLID_5_" class="st0" d="M5.9,24.9c0-1.1,0.4-2.1,1.2-2.9L23,6.1c1.6-1.6,4.2-1.6,5.9,0c1.6,1.6,1.6,4.2,0,5.9L12.9,27.9
		c-1.6,1.6-4.2,1.6-5.9,0C6.3,27.1,5.9,26,5.9,24.9z"/>
</g>
<g id="XMLID_2_">
	<path id="XMLID_4_" class="st0" d="M15.9,22.1c0.8-0.8,1.8-1.2,2.9-1.2h22.5c2.3,0,4.1,1.9,4.1,4.1c0,2.3-1.9,4.1-4.1,4.1H18.8
		c-2.3,0-4.1-1.9-4.1-4.1C14.7,23.9,15.1,22.8,15.9,22.1z"/>
</g>
<g id="XMLID_74_">
	<path id="XMLID_3_" class="st0" d="M5.9,24.9c0-1.1,0.4-2.1,1.2-2.9c1.6-1.6,4.2-1.6,5.9,0l15.9,15.9c1.6,1.6,1.6,4.2,0,5.9
		c-1.6,1.6-4.2,1.6-5.9,0L7.1,27.8C6.3,27,5.9,26,5.9,24.9z"/>
</g>
</svg>
