<?xml version="1.0" encoding="utf-8"?>
<!-- Generator: Adobe Illustrator 19.0.0, SVG Export Plug-In . SVG Version: 6.00 Build 0)  -->
<svg version="1.1" id="Layer_1" xmlns="http://www.w3.org/2000/svg" xmlns:xlink="http://www.w3.org/1999/xlink" x="0px" y="0px"
	 viewBox="0 0 50 50" style="enable-background:new 0 0 50 50;" xml:space="preserve">
<style type="text/css">
	.st0{fill:#FFFFFF;}
</style>
<g id="XMLID_69_">
	<path id="XMLID_5_" class="st0" d="M25.2,29c-1.1,0-2.1-0.4-2.9-1.2L6.3,11.9c-1.6-1.6-1.6-4.2,0-5.9c1.6-1.6,4.2-1.6,5.9,0
		l15.9,15.9c1.6,1.6,1.6,4.2,0,5.9C27.3,28.6,26.2,29,25.2,29z"/>
</g>
<g id="XMLID_72_">
	<path id="XMLID_4_" class="st0" d="M41,44.9c-1.1,0-2.1-0.4-2.9-1.2L22.2,27.7c-1.6-1.6-1.6-4.2,0-5.9c1.6-1.6,4.2-1.6,5.9,0
		L44,37.8c1.6,1.6,1.6,4.2,0,5.9C43.1,44.5,42.1,44.9,41,44.9z"/>
</g>
<g id="XMLID_74_">
	<path id="XMLID_3_" class="st0" d="M25.2,29c-1.1,0-2.1-0.4-2.9-1.2c-1.6-1.6-1.6-4.2,0-5.9L38.1,6c1.6-1.6,4.2-1.6,5.9,0
		c1.6,1.6,1.6,4.2,0,5.9L28.1,27.8C27.3,28.6,26.2,29,25.2,29z"/>
</g>
<g id="XMLID_73_">
	<path id="XMLID_2_" class="st0" d="M9.3,44.9c-1.1,0-2.1-0.4-2.9-1.2c-1.6-1.6-1.6-4.2,0-5.9l15.9-15.9c1.6-1.6,4.2-1.6,5.9,0
		c1.6,1.6,1.6,4.2,0,5.9L12.2,43.6C11.4,44.5,10.4,44.9,9.3,44.9z"/>
</g>
</svg>
