<?xml version="1.0" encoding="utf-8"?>
<!-- Generator: Adobe Illustrator 19.0.0, SVG Export Plug-In . SVG Version: 6.00 Build 0)  -->
<svg version="1.1" id="Layer_1" xmlns="http://www.w3.org/2000/svg" xmlns:xlink="http://www.w3.org/1999/xlink" x="0px" y="0px"
	 viewBox="0 0 50 50" style="enable-background:new 0 0 50 50;" xml:space="preserve">
<style type="text/css">
	.st0{fill:#FFFFFF;}
</style>
<path id="XMLID_4_" class="st0" d="M34.7,6.2c-0.2-0.7-0.8-1.3-1.6-1.4c-0.7-0.2-1.5,0.1-2,0.6c-0.9,1-5,4.4-8.6,3
	C15,5.5,9.3,12.3,9,12.6c-0.5,0.6-0.6,1.5-0.3,2.2c0,0.1,0,0.1,0,0.2l9.4,29.5c0.4,1.1,1.6,1.8,2.7,1.4c1.1-0.4,1.8-1.6,1.4-2.7
	l-3.7-11.5c1.4-1.2,4.4-3.4,7.8-2.1c2.4,0.9,4.7,0.7,6.8,0.1c3.1-1,5.5-3,6.6-4.1c0.6-0.7,0.7-1.6,0.4-2.4c0-0.1,0-0.1,0-0.2
	L34.7,6.2L34.7,6.2z M27.9,25.5c-4.5-1.7-8.3,0-10.7,1.7l-4.1-12.7c1.4-1.3,4.4-3.4,7.8-2.1c4,1.6,8-0.1,10.7-1.9l4.1,12.7
	C34,24.6,30.8,26.6,27.9,25.5z"/>
</svg>
