<?xml version="1.0" encoding="utf-8"?>
<!-- Generator: Adobe Illustrator 19.0.0, SVG Export Plug-In . SVG Version: 6.00 Build 0)  -->
<svg version="1.1" id="Layer_1" xmlns="http://www.w3.org/2000/svg" xmlns:xlink="http://www.w3.org/1999/xlink" x="0px" y="0px"
	 viewBox="0 0 50 50" style="enable-background:new 0 0 50 50;" xml:space="preserve">
<style type="text/css">
	.st0{fill:#55C3B9;}
</style>
<g id="XMLID_1_">
	<path id="XMLID_14_" class="st0" d="M5,30.8c-1.1,0-2,0.9-2,2v10c0,1.1,0.9,2,2,2s2-0.9,2-2v-10C7,31.6,6.1,30.8,5,30.8z"/>
	<path id="XMLID_15_" class="st0" d="M45,30.8c-1.1,0-2,0.9-2,2v10c0,1.1,0.9,2,2,2s2-0.9,2-2v-10C47,31.6,46.1,30.8,45,30.8z"/>
	<path id="XMLID_16_" class="st0" d="M39.5,28.9c-1.1,0-2,0.9-2,2v4.9h-6.4c-0.7,0-1.3,0.3-1.7,0.9L28,38.8l-1.1-2l-2.7-5
		c-0.3-0.6-1-1-1.7-1.1c-0.7,0-1.4,0.3-1.8,0.9l-2.7,4.1h-5.5v-4.9c0-1.1-0.9-2-2-2s-2,0.9-2,2v13.8c0,1.1,0.9,2,2,2s2-0.9,2-2v-4.9
		h6.6c0.7,0,1.3-0.3,1.7-0.9l1.4-2.2l1.1,2l2.7,5c0.3,0.6,1,1,1.7,1.1c0,0,0.1,0,0.1,0c0.7,0,1.3-0.3,1.7-0.9l2.7-4.1h5.3v4.9
		c0,1.1,0.9,2,2,2s2-0.9,2-2V30.9C41.5,29.8,40.6,28.9,39.5,28.9z"/>
</g>
</svg>
