<?xml version="1.0" encoding="utf-8"?>
<!-- Generator: Adobe Illustrator 19.0.0, SVG Export Plug-In . SVG Version: 6.00 Build 0)  -->
<svg version="1.1" id="Layer_1" xmlns="http://www.w3.org/2000/svg" xmlns:xlink="http://www.w3.org/1999/xlink" x="0px" y="0px"
	 viewBox="0 0 50 50" style="enable-background:new 0 0 50 50;" xml:space="preserve">
<style type="text/css">
	.st0{fill:#FFFFFF;}
</style>
<path id="XMLID_2_" class="st0" d="M47.3,8.9H2.7c-0.2,0-0.4-0.2-0.4-0.4v-4c0-0.2,0.2-0.4,0.4-0.4h44.6c0.2,0,0.4,0.2,0.4,0.4v4
	C47.8,8.7,47.6,8.9,47.3,8.9z"/>
<path id="XMLID_21_" class="st0" d="M36.6,27.8H2.7c-0.2,0-0.4-0.2-0.4-0.4v-4c0-0.2,0.2-0.4,0.4-0.4h33.9c0.2,0,0.4,0.2,0.4,0.4v4
	C37.1,27.5,36.9,27.8,36.6,27.8z"/>
<path id="XMLID_36_" class="st0" d="M47.3,46.1H2.7c-0.2,0-0.4-0.2-0.4-0.4v-4c0-0.2,0.2-0.4,0.4-0.4h44.6c0.2,0,0.4,0.2,0.4,0.4v4
	C47.8,45.9,47.6,46.1,47.3,46.1z"/>
</svg>
