<?xml version="1.0" encoding="utf-8"?>
<!-- Generator: Adobe Illustrator 19.0.0, SVG Export Plug-In . SVG Version: 6.00 Build 0)  -->
<svg version="1.1" id="Layer_1" xmlns="http://www.w3.org/2000/svg" xmlns:xlink="http://www.w3.org/1999/xlink" x="0px" y="0px"
	 viewBox="0 0 50 50" style="enable-background:new 0 0 50 50;" xml:space="preserve">
<style type="text/css">
	.st0{fill:#FFFFFF;}
</style>
<g id="XMLID_1_">
	<path id="XMLID_4_" class="st0" d="M25,44.7C14.1,44.7,5.3,35.9,5.3,25C5.3,14.1,14.1,5.3,25,5.3c10.9,0,19.7,8.8,19.7,19.7
		C44.7,35.9,35.9,44.7,25,44.7z M25,8.3C15.8,8.3,8.3,15.8,8.3,25c0,9.2,7.5,16.7,16.7,16.7c9.2,0,16.7-7.5,16.7-16.7
		C41.7,15.8,34.2,8.3,25,8.3z"/>
</g>
<path class="st0" d="M26.9,24.8c-0.8-1.8,0.5-4.4,4.3-4.4c2.7,0,3.8,2.1,3.8,4.1c0,3-3.2,4.2-3.2,4.2S30.2,34,25.3,34
	c-1.7,0-2.7-0.2-3.4-0.3c-0.7,0-1.3,0.3-1.7,0.3c-0.4,0-2.9-1.7-3.7-3.9c-1.3-3.2-1.4-5.7-1.5-7c-0.1-1.8,0.2-3,1.1-3.8
	c0.6-0.5,1.3-1.2,2.1-1.3c0.9-0.1,1.3,0.3,1.9,0.8c0.5,0.4,1,1,1.3,1.4c0.1,0.2,0.1,0.5-0.1,0.6c-1.4,1.3-2.5,1.3-2.8,1.1
	c-0.5-0.5-1-0.2-0.8,0.3c0.2,0.4,0.5,1.9,1.7,3c1.4,1.2,1.8,2.3,2.2,3.2C21.8,27.5,22.5,24.2,26.9,24.8z"/>
</svg>
