<?xml version="1.0" encoding="utf-8"?>
<!-- Generator: Adobe Illustrator 19.0.0, SVG Export Plug-In . SVG Version: 6.00 Build 0)  -->
<svg version="1.1" id="Layer_1" xmlns="http://www.w3.org/2000/svg" xmlns:xlink="http://www.w3.org/1999/xlink" x="0px" y="0px"
	 viewBox="0 0 50 50" style="enable-background:new 0 0 50 50;" xml:space="preserve">
<style type="text/css">
	.st0{fill:#FFFFFF;}
</style>
<g id="XMLID_44_">
	<path id="XMLID_47_" class="st0" d="M27,7.9v-2h1.4c0.9,0,1.6-0.7,1.6-1.6c0-0.9-0.7-1.6-1.6-1.6h-6c-0.9,0-1.6,0.7-1.6,1.6
		s0.7,1.6,1.6,1.6h1.4v2C13.7,8.7,5.7,17.2,5.7,27.5c0,10.9,8.9,19.7,19.7,19.7s19.7-8.9,19.7-19.7C45.2,17.2,37.1,8.7,27,7.9z
		 M25.4,44.1c-9.1,0-16.6-7.4-16.6-16.6s7.4-16.6,16.6-16.6c9.1,0,16.6,7.4,16.6,16.6S34.6,44.1,25.4,44.1z"/>
	<path id="XMLID_46_" class="st0" d="M36.4,9.5c0.9,0.5,1.8,1.2,2.6,1.8c0.3,0.2,0.7,0.4,1,0.4c0.5,0,0.9-0.2,1.2-0.6
		c0.6-0.7,0.5-1.7-0.2-2.2C40,8.2,39,7.5,38,6.8c-0.7-0.5-1.7-0.2-2.2,0.5C35.4,8.1,35.6,9.1,36.4,9.5z"/>
	<path id="XMLID_45_" class="st0" d="M32.5,17.1c-0.7-0.5-1.7-0.3-2.2,0.4l-6.2,9.1c-0.5,0.7-0.3,1.7,0.4,2.2
		c0.3,0.2,0.6,0.3,0.9,0.3c0.5,0,1-0.2,1.3-0.7l6.2-9.1C33.4,18.6,33.3,17.6,32.5,17.1z"/>
</g>
</svg>
