<?xml version="1.0" encoding="utf-8"?>
<!-- Generator: Adobe Illustrator 19.0.0, SVG Export Plug-In . SVG Version: 6.00 Build 0)  -->
<svg version="1.1" id="Layer_1" xmlns="http://www.w3.org/2000/svg" xmlns:xlink="http://www.w3.org/1999/xlink" x="0px" y="0px"
	 viewBox="0 0 50 50" style="enable-background:new 0 0 50 50;" xml:space="preserve">
<style type="text/css">
	.st0{fill:#FFFFFF;}
</style>
<g id="XMLID_1_">
	<path id="XMLID_4_" class="st0" d="M25,44.7C14.1,44.7,5.3,35.9,5.3,25C5.3,14.1,14.1,5.3,25,5.3c10.9,0,19.7,8.8,19.7,19.7
		C44.7,35.9,35.9,44.7,25,44.7z M25,8.3C15.8,8.3,8.3,15.8,8.3,25c0,9.2,7.5,16.7,16.7,16.7c9.2,0,16.7-7.5,16.7-16.7
		C41.7,15.8,34.2,8.3,25,8.3z"/>
</g>
<g id="XMLID_3_">
	<polyline id="XMLID_8_" class="st0" points="21.3,32.4 33.4,25.1 21.3,17.7 	"/>
</g>
</svg>
